<?xml version="1.0" encoding="UTF-8"?>
<svg id="Layer_2" xmlns="http://www.w3.org/2000/svg" viewBox="0 0 82.41 130.51">
  <defs>
    <style>
      .cls-1 {
        fill: #138af2;
      }
    </style>
  </defs>
  <g id="Icon_Set">
    <g>
      <path class="cls-1" d="M41.67,2.93C20.59,2.68,2.97,20.05,2.93,41.13c-.01,8.01,2.43,15.45,6.63,21.61,6.63,9.71,11.26,18.46,11.94,29.77.06.95.09,1.93.09,2.92h21.53s17.72,0,17.72,0c0-.99.03-1.97.08-2.92.67-11.26,5.23-20,11.87-29.66,4.23-6.16,6.7-13.61,6.7-21.64,0-20.98-16.89-38.02-37.81-38.27ZM32.59,92.5c-.78-16.12-6.02-29.72-9.2-36.61-.96-2.08-.69-4.5.72-6.32,1.41-1.82,3.69-2.69,5.95-2.29,1.51.27,3.1,1.01,5.18,2.39,3.4,2.26,7.79,2.26,11.19,0,2.07-1.38,3.67-2.12,5.17-2.39,2.26-.41,4.54.47,5.95,2.29,1.4,1.82,1.68,4.23.71,6.32-3.18,6.9-8.42,20.49-9.2,36.61h-5.86c.78-17.23,6.36-31.73,9.75-39.07.02-.05.07-.15-.03-.28-.11-.14-.22-.12-.28-.11-.65.12-1.65.62-2.97,1.5-5.37,3.58-12.31,3.58-17.68,0-1.32-.88-2.32-1.38-2.97-1.5-.06-.01-.17-.03-.28.11-.1.13-.06.23-.03.28,3.38,7.33,8.97,21.84,9.75,39.07h-5.86Z"/>
      <path class="cls-1" d="M70.5,12.23C62.83,4.48,52.6.13,41.7,0c-11.08-.13-21.57,4.18-29.51,12.11C4.35,19.93.02,30.23,0,41.13c-.01,8.35,2.45,16.39,7.14,23.26,7.11,10.42,11.51,19.25,11.51,31.04,0,.17.01.34.04.5h0c.1.59.39,1.14.81,1.57.55.55,1.29.86,2.07.86h23.61s15.64,0,15.64,0c1.45,0,2.65-1.05,2.88-2.43h0c.03-.16.04-.33.04-.5,0-11.88,4.38-20.65,11.44-30.93,4.72-6.87,7.21-14.93,7.21-23.3,0-10.92-4.23-21.21-11.91-28.97ZM57.98,92.5h-19.53s-14.02,0-14.02,0c-.66-11.83-5.3-20.92-12.45-31.41-4.02-5.89-6.13-12.79-6.12-19.95.03-19.12,16.23-35.28,35.36-35.28.14,0,.28,0,.42,0,19.25.23,34.92,16.08,34.92,35.34,0,7.18-2.14,14.09-6.19,19.98-6.93,10.09-11.71,19.4-12.38,31.31Z"/>
      <path class="cls-1" d="M53.33,120.02c-.96,1.96-2.37,3.63-4.08,4.9-2.27,1.69-5.07,2.66-8.05,2.66-5.23,0-9.9-3-12.13-7.56h24.26Z"/>
      <path class="cls-1" d="M60.79,106.84v5.94c0,.48-.08.95-.23,1.38H21.85c-.15-.43-.23-.89-.23-1.37v-5.94s39.16,0,39.16,0Z"/>
      <rect class="cls-1" x="21.63" y="95.43" width="39.16" height="5.56"/>
      <path class="cls-1" d="M45.19,98.36c-1.22-.36-2.1-1.5-2.08-2.84,0-.03,0-.06,0-.09h-4.57s0,.06,0,.09c.01,1.34-.87,2.48-2.09,2.84h8.74s0,0,0,0ZM45.19,98.36h-8.74s8.74,0,8.74,0c0,0,0,0,0,0ZM63.71,95.93v-.49c0-1.58-1.24-2.86-2.8-2.92-.04,0-.08,0-.13,0H21.62s-.09,0-.13,0c-1.55.07-2.8,1.35-2.8,2.92v4.51c0,.58.47,1.05,1.05,1.05h4.8v-2.63s33.3,0,33.3,0v2.63h4.8c.58,0,1.05-.47,1.05-1.05v-4.01ZM24.55,112.79v-5.94h-4.46c-.77,0-1.39.63-1.39,1.4v4.56c0,.76.64,1.36,1.39,1.36h5.84c-.76,0-1.38-.62-1.38-1.38ZM55.58,120.02h-5.62c-1.92,2.86-5.16,4.64-8.76,4.64s-6.82-1.8-8.75-4.64h-5.62c-.46,0-.77.47-.58.89,2.64,5.76,8.46,9.6,14.95,9.6s12.31-3.78,14.95-9.61c.19-.42-.12-.89-.58-.89ZM62.32,106.84h-4.46v5.94c0,.76-.62,1.38-1.38,1.38h5.83c.76,0,1.39-.61,1.4-1.36v-4.56c0-.77-.63-1.39-1.4-1.39ZM45.19,98.36c-1.22-.36-2.1-1.5-2.08-2.84,0-.03,0-.06,0-.09h-4.57s0,.06,0,.09c.01,1.34-.87,2.48-2.09,2.84h8.74s0,0,0,0Z"/>
    </g>
  </g>
</svg>