<?xml version="1.0" encoding="UTF-8"?>
<svg id="Layer_2" xmlns="http://www.w3.org/2000/svg" viewBox="0 0 207 207">
  <defs>
    <style>
      .cls-1 {
        fill: #d3e6f8;
      }

      .cls-2 {
        fill: #fff;
      }

      .cls-3 {
        fill: #7babf1;
      }

      .cls-4 {
        fill: none;
        stroke: #4c4372;
        stroke-linecap: round;
        stroke-linejoin: round;
        stroke-width: 4.57px;
      }

      .cls-5 {
        fill: #a4cff2;
      }
    </style>
  </defs>
  <g id="Icon_Set">
    <g>
      <circle class="cls-2" cx="103.5" cy="103.5" r="103.5"/>
      <path class="cls-2" d="M92.08,89.26c1.15.73,1.82,2.03,1.82,3.39v11.53c0,.11.01.21.02.32h19.17c0-.11.02-.21.02-.32v-11.55c0-1.36.68-2.65,1.83-3.38,6.01-3.8,10-10.5,10-18.13,0-12.29-10.35-22.17-22.81-21.4-10.97.68-19.76,9.82-20.06,20.81-.21,7.89,3.84,14.84,10.01,18.73Z"/>
      <path class="cls-1" d="M118.26,71.11c0,7.63-3.99,14.33-10,18.13-1.15.73-1.83,2.02-1.83,3.38v11.55c0,.11,0,.21-.01.32h6.67c0-.11.02-.21.02-.32v-11.55c0-1.36.68-2.65,1.83-3.38,6.01-3.8,10-10.5,10-18.13,0-12.29-10.35-22.17-22.81-21.4-.67.04-1.33.12-1.97.22,10.26,1.6,18.11,10.47,18.11,21.18Z"/>
      <path class="cls-3" d="M113.09,104.49c0-.11.02-.21.02-.32v-8.85h-19.21v8.85c0,.11.01.21.02.32h19.17Z"/>
      <path class="cls-1" d="M74.86,120.88h57.28v43.53c0,4.46-3.62,8.09-8.09,8.09h-41.11c-4.46,0-8.09-3.62-8.09-8.09v-43.53h0Z"/>
      <path class="cls-5" d="M122.54,120.88v43.53c0,4.47-3.62,8.09-8.09,8.09h9.6c4.47,0,8.09-3.62,8.09-8.09v-43.53h-9.6Z"/>
      <rect class="cls-2" x="74.86" y="120.88" width="57.28" height="15.19"/>
      <rect class="cls-1" x="122.54" y="120.88" width="9.6" height="15.19"/>
      <line class="cls-4" x1="103.5" y1="95.33" x2="103.5" y2="78.45"/>
      <path class="cls-4" d="M93.9,73.88v.57c0,2.21,1.79,4,4,4h11.21c2.21,0,4-1.79,4-4v-.57"/>
      <path class="cls-4" d="M74.86,120.88h57.28v43.53c0,4.46-3.62,8.09-8.09,8.09h-41.11c-4.46,0-8.09-3.62-8.09-8.09v-43.53h0Z"/>
      <rect class="cls-4" x="74.86" y="120.88" width="57.28" height="15.19"/>
      <line class="cls-4" x1="103.5" y1="40.81" x2="103.5" y2="34.5"/>
      <line class="cls-4" x1="129.83" y1="51.72" x2="134.29" y2="47.26"/>
      <line class="cls-4" x1="73.58" y1="78.05" x2="67.27" y2="78.05"/>
      <line class="cls-4" x1="139.73" y1="78.05" x2="133.42" y2="78.05"/>
      <line class="cls-4" x1="77.17" y1="51.72" x2="72.71" y2="47.26"/>
      <path class="cls-5" d="M140.31,120.88h-73.61c-4.53,0-8.2-3.67-8.2-8.2h0c0-4.53,3.67-8.2,8.2-8.2h73.61c4.53,0,8.2,3.67,8.2,8.2h0c0,4.53-3.67,8.2-8.2,8.2Z"/>
      <path class="cls-3" d="M140.31,104.49h-20.13c4.53,0,8.2,3.67,8.2,8.2s-3.67,8.2-8.2,8.2h20.13c4.53,0,8.2-3.67,8.2-8.2s-3.67-8.2-8.2-8.2Z"/>
      <path class="cls-4" d="M113.09,104.49c0-.11.02-.21.02-.32v-8.85h-19.21v8.85c0,.11.01.21.02.32h19.17Z"/>
      <path class="cls-4" d="M92.08,89.26c1.15.73,1.82,2.03,1.82,3.39v11.53c0,.11.01.21.02.32h19.17c0-.11.02-.21.02-.32v-11.55c0-1.36.68-2.65,1.83-3.38,6.01-3.8,10-10.5,10-18.13,0-12.29-10.35-22.17-22.81-21.4-10.97.68-19.76,9.82-20.06,20.81-.21,7.89,3.84,14.84,10.01,18.73Z"/>
      <path class="cls-4" d="M140.31,120.88h-73.61c-4.53,0-8.2-3.67-8.2-8.2h0c0-4.53,3.67-8.2,8.2-8.2h73.61c4.53,0,8.2,3.67,8.2,8.2h0c0,4.53-3.67,8.2-8.2,8.2Z"/>
    </g>
  </g>
</svg>