<?xml version="1.0" encoding="UTF-8"?>
<svg id="Layer_2" xmlns="http://www.w3.org/2000/svg" viewBox="0 0 129.46 109.82">
  <defs>
    <style>
      .cls-1 {
        fill: #138af2;
        stroke: #138af2;
        stroke-miterlimit: 10;
        stroke-width: 2.83px;
      }
    </style>
  </defs>
  <g id="Icon_Set">
    <path class="cls-1" d="M13.42,94.64V3.17c0-.97-.79-1.75-1.75-1.75H3.17c-.97,0-1.75.79-1.75,1.75v103.47c0,.97.79,1.75,1.75,1.75h123.11c.97,0,1.75-.79,1.75-1.75v-8.49c0-.97-.79-1.75-1.75-1.75H15.17c-.97,0-1.75-.79-1.75-1.75Z"/>
    <path class="cls-1" d="M118.98,16.61l-31.15-.1c-1.3,0-1.95,1.56-1.04,2.48l10.31,10.38c.57.57.56,1.49,0,2.06l-24.93,24.87c-.57.57-1.49.57-2.06,0l-20.91-20.96c-.57-.57-1.49-.57-2.06,0l-7.45,7.41.03.03-20.46,20.41c-.57.57-.57,1.49,0,2.06l6.38,6.41c.57.57,1.49.57,2.06,0l19.44-19.39c.57-.57,1.49-.57,2.06,0l15.37,15.4.02-.02,5.12,5.15c.78.78,2.05.79,2.83,0l32.98-32.9c.57-.57,1.49-.57,2.06,0l10.27,10.34c.91.92,2.49.28,2.49-1.02l.1-31.15c0-.8-.65-1.46-1.45-1.46Z"/>
  </g>
</svg>