<?xml version="1.0" encoding="UTF-8"?>
<svg id="Layer_2" xmlns="http://www.w3.org/2000/svg" viewBox="0 0 207 207">
  <defs>
    <style>
      .cls-1 {
        fill: #d3e6f8;
      }

      .cls-2 {
        fill: none;
      }

      .cls-2, .cls-3 {
        stroke: #4c4372;
        stroke-linecap: round;
        stroke-linejoin: round;
        stroke-width: 6px;
      }

      .cls-4, .cls-3 {
        fill: #fff;
      }

      .cls-5 {
        fill: #7babf1;
      }

      .cls-6 {
        fill: #4c4372;
      }

      .cls-7 {
        fill: #a4cff2;
      }

      .cls-8 {
        fill: #fd919e;
      }
    </style>
  </defs>
  <g id="Icon_Set">
    <g>
      <circle class="cls-4" cx="103.5" cy="103.5" r="103.5"/>
      <path class="cls-7" d="M80.21,166.6h46.59c3.93,0,7.12,3.19,7.12,7.12v10.32h-60.83v-10.32c0-3.93,3.19-7.12,7.12-7.12Z"/>
      <rect class="cls-4" x="92.1" y="143.3" width="22.8" height="23.3"/>
      <path class="cls-5" d="M126.79,166.6h-14.71c3.93,0,7.12,3.19,7.12,7.12v10.32h14.71v-10.32c0-3.93-3.19-7.12-7.12-7.12Z"/>
      <path class="cls-5" d="M40.09,42.96h126.81c4.63,0,8.4,3.76,8.4,8.4v83.55c0,4.63-3.76,8.4-8.4,8.4H40.09c-4.63,0-8.4-3.76-8.4-8.4V51.35c0-4.63,3.76-8.4,8.4-8.4Z"/>
      <path class="cls-2" d="M40.09,42.96h126.81c4.63,0,8.4,3.76,8.4,8.4v83.55c0,4.63-3.76,8.4-8.4,8.4H40.09c-4.63,0-8.4-3.76-8.4-8.4V51.35c0-4.63,3.76-8.4,8.4-8.4Z"/>
      <rect class="cls-2" x="92.1" y="143.3" width="22.8" height="23.3"/>
      <path class="cls-2" d="M80.21,166.6h46.59c3.93,0,7.12,3.19,7.12,7.12v10.32h-60.83v-10.32c0-3.93,3.19-7.12,7.12-7.12Z"/>
      <path class="cls-1" d="M82.42,137.27h0c0,3.33,2.7,6.03,6.03,6.03h30.11c3.33,0,6.03-2.7,6.03-6.03h0c0-3.33-2.7-6.03-6.03-6.03h-30.11c-3.33,0-6.03,2.7-6.03,6.03Z"/>
      <path class="cls-4" d="M109.9,131.24l10.54-10.39c3.41-3.36,4.12-8.6,1.72-12.74l-7.16-12.4-11.22-19.44-11.22,19.44-7.16,12.4c-2.39,4.14-1.68,9.38,1.72,12.74l10.54,10.39h12.23Z"/>
      <path class="cls-1" d="M122.17,108.11l-7.16-12.4-11.22-19.44-3.64,6.31,7.58,13.13,7.16,12.4c2.39,4.14,1.68,9.38-1.72,12.74l-10.54,10.39h7.29l10.54-10.39c3.41-3.36,4.12-8.6,1.72-12.74Z"/>
      <path class="cls-7" d="M118.56,131.24h-11.15c3.33,0,6.03,2.7,6.03,6.03h0c0,3.33-2.7,6.03-6.03,6.03h11.15c3.33,0,6.03-2.7,6.03-6.03h0c0-3.33-2.7-6.03-6.03-6.03Z"/>
      <path class="cls-2" d="M109.9,131.24l10.54-10.39c3.41-3.36,4.12-8.6,1.72-12.74l-7.16-12.4-11.22-19.44-11.22,19.44-7.16,12.4c-2.39,4.14-1.68,9.38,1.72,12.74l10.54,10.39h12.23Z"/>
      <path class="cls-2" d="M82.42,137.27h0c0,3.33,2.7,6.03,6.03,6.03h30.11c3.33,0,6.03-2.7,6.03-6.03h0c0-3.33-2.7-6.03-6.03-6.03h-30.11c-3.33,0-6.03,2.7-6.03,6.03Z"/>
      <line class="cls-2" x1="103.79" y1="106.27" x2="103.79" y2="76.27"/>
      <path class="cls-6" d="M108.59,109.41c0,2.65-2.15,4.81-4.81,4.81s-4.81-2.15-4.81-4.81,2.15-4.81,4.81-4.81,4.81,2.15,4.81,4.81Z"/>
      <path class="cls-2" d="M60,104.43c0-24.03,19.48-43.5,43.5-43.5s43.5,19.48,43.5,43.5"/>
      <line class="cls-2" x1="59.72" y1="60.93" x2="147" y2="60.93"/>
      <rect class="cls-4" x="54.01" y="104.43" width="11.98" height="11.98"/>
      <rect class="cls-4" x="141.01" y="104.43" width="11.98" height="11.98"/>
      <rect class="cls-8" x="97.82" y="54.94" width="11.98" height="11.98"/>
      <rect class="cls-2" x="54.01" y="104.43" width="11.98" height="11.98"/>
      <rect class="cls-2" x="141.01" y="104.43" width="11.98" height="11.98"/>
      <rect class="cls-3" x="97.82" y="54.94" width="11.98" height="11.98"/>
      <circle class="cls-1" cx="53.39" cy="60.93" r="6.02"/>
      <circle class="cls-1" cx="152.99" cy="60.93" r="6.02"/>
      <circle class="cls-2" cx="53.39" cy="60.93" r="6.02"/>
      <circle class="cls-2" cx="152.99" cy="60.93" r="6.02"/>
    </g>
  </g>
</svg>