<?xml version="1.0" encoding="UTF-8"?>
<svg id="Layer_2" xmlns="http://www.w3.org/2000/svg" viewBox="0 0 207 207">
  <defs>
    <style>
      .cls-1 {
        fill: #d3e6f8;
      }

      .cls-2 {
        fill: none;
        stroke: #4c4372;
        stroke-linecap: round;
        stroke-linejoin: round;
        stroke-width: 6px;
      }

      .cls-3 {
        fill: #fff;
      }

      .cls-4 {
        fill: #7babf1;
      }

      .cls-5 {
        font-family: SegoeUI-Bold, 'Segoe UI';
      }

      .cls-5, .cls-6 {
        fill: #4c4372;
        font-size: 32.31px;
        font-weight: 700;
      }

      .cls-6 {
        font-family: Rift-BoldItalic, Rift;
        font-style: italic;
      }

      .cls-7 {
        fill: #a4cff2;
      }
    </style>
  </defs>
  <g id="Icon_Set">
    <g>
      <circle class="cls-3" cx="103.5" cy="103.5" r="103.5"/>
      <path class="cls-7" d="M77.82,153.95h44.27c3.74,0,6.77,3.03,6.77,6.77v9.81h-57.8v-9.81c0-3.74,3.03-6.77,6.77-6.77Z"/>
      <rect class="cls-3" x="89.12" y="131.81" width="21.66" height="22.14"/>
      <path class="cls-4" d="M122.09,153.95h-13.97c3.74,0,6.77,3.03,6.77,6.77v9.81h13.97v-9.81c0-3.74-3.03-6.77-6.77-6.77Z"/>
      <rect class="cls-4" x="31.73" y="36.47" width="136.45" height="95.34" rx="7.98" ry="7.98"/>
      <rect class="cls-2" x="31.73" y="36.47" width="136.45" height="95.34" rx="7.98" ry="7.98"/>
      <rect class="cls-2" x="89.12" y="131.81" width="21.66" height="22.14"/>
      <path class="cls-2" d="M77.82,153.95h44.27c3.74,0,6.77,3.03,6.77,6.77v9.81h-57.8v-9.81c0-3.74,3.03-6.77,6.77-6.77Z"/>
      <rect class="cls-4" x="161.37" y="137.98" width="13.61" height="32.55" rx="2.55" ry="2.55"/>
      <circle class="cls-1" cx="168.18" cy="89.36" r="30.19" transform="translate(21.26 210.54) rotate(-67.5)"/>
      <path class="cls-3" d="M168.18,109.96c-11.37,0-20.6-9.22-20.6-20.6s9.22-20.6,20.6-20.6c11.37,0,20.6,9.22,20.6,20.6s-9.22,20.6-20.6,20.6Z"/>
      <path class="cls-7" d="M168.18,119.55c-1.45,0-2.87-.11-4.26-.31v18.73h8.52v-18.73c-1.39.2-2.81.31-4.26.31Z"/>
      <path class="cls-2" d="M168.18,109.96c-11.37,0-20.6-9.22-20.6-20.6s9.22-20.6,20.6-20.6c11.37,0,20.6,9.22,20.6,20.6s-9.22,20.6-20.6,20.6Z"/>
      <rect class="cls-2" x="161.37" y="137.98" width="13.61" height="32.55" rx="2.55" ry="2.55"/>
      <path class="cls-2" d="M168.18,119.55c-1.45,0-2.87-.11-4.26-.31v18.73h8.52v-18.73c-1.39.2-2.81.31-4.26.31Z"/>
      <circle class="cls-2" cx="168.18" cy="89.36" r="30.19" transform="translate(21.26 210.54) rotate(-67.5)"/>
      <text class="cls-6" transform="translate(80.25 95.24)"><tspan x="0" y="0">404</tspan></text>
      <text class="cls-5" transform="translate(162.1 100.29)"><tspan x="0" y="0">?</tspan></text>
    </g>
  </g>
</svg>