<?xml version="1.0" encoding="UTF-8"?>
<svg id="Layer_2" xmlns="http://www.w3.org/2000/svg" viewBox="0 0 115.54 119.61">
  <defs>
    <style>
      .cls-1 {
        fill: none;
        stroke: #138af2;
        stroke-linecap: round;
        stroke-miterlimit: 10;
        stroke-width: 8.5px;
      }
    </style>
  </defs>
  <g id="Icon_Set">
    <g>
      <path class="cls-1" d="M50.11,106.02c.79-11.76-.43-14.54-1.51-23.77-.05-.42-.1-.81-.15-1.23v-.02c-.16-1.27-.49-3.91-.49-3.91-.47-5.84,2.58-11.27,6.81-12.18"/>
      <path class="cls-1" d="M81.01,100.58c2.07-24.92-2.58-35.76-2.58-35.76h0c-3.26-14.47-13.66-23.69-25.06-21.25-10.65,2.29-18.85,14.03-20.59,28.07,0,0-.47,11.91.69,26.9"/>
      <path class="cls-1" d="M34.14,32.75c-9.4,8.73-15.68,22.5-16.68,37.65-.28,4.26.15,8.51.94,12.62.27,1.42.5,2.86.69,4.33"/>
      <path class="cls-1" d="M97.02,88.01c-.88-12.84-2.77-24.89-5.65-34.49-.19-.63-.38-1.24-.59-1.86h0c-.6-2.4-1.4-4.67-2.36-6.83,0-.01-.02-.04-.02-.04-7.5-16.78-25.28-25.61-42.63-20.05"/>
      <path class="cls-1" d="M98.63,29.38C87.28,12.3,76.43,3.17,54.25,4.35,31.5,5.57,11.72,23.09,6.85,46.9c-2.71,13.28-2.6,23.59-2.6,23.59"/>
      <path class="cls-1" d="M111.29,70.61c-.2-10.65-2.34-18.99-5.11-25.68"/>
      <path class="cls-1" d="M55.65,64.91c7.1-.43,12.84,3.53,11.88,24.65-.96,21.12-2.34,25.8-2.34,25.8"/>
    </g>
  </g>
</svg>