<?xml version="1.0" encoding="UTF-8"?>
<svg id="Layer_2" xmlns="http://www.w3.org/2000/svg" viewBox="0 0 207 207">
  <defs>
    <style>
      .cls-1 {
        fill: #d3e6f8;
      }

      .cls-2 {
        fill: #fff;
      }

      .cls-3 {
        fill: #7babf1;
      }

      .cls-4 {
        fill: none;
        stroke: #4c4372;
        stroke-linecap: round;
        stroke-linejoin: round;
        stroke-width: 5.27px;
      }

      .cls-5 {
        fill: #a4cff2;
      }

      .cls-6 {
        fill: #fd919e;
      }
    </style>
  </defs>
  <g id="Icon_Set">
    <circle class="cls-2" cx="103.5" cy="103.5" r="103.5"/>
    <g>
      <rect class="cls-5" x="39.08" y="49.07" width="109.83" height="76.74" rx="6.42" ry="6.42"/>
      <rect class="cls-1" x="51.06" y="87.44" width="21.75" height="21.75"/>
      <rect class="cls-1" x="83.12" y="87.44" width="21.75" height="21.75"/>
      <rect class="cls-1" x="115.19" y="87.44" width="21.75" height="21.75"/>
      <rect class="cls-2" x="51.06" y="60.95" width="42.94" height="14.76"/>
      <path class="cls-5" d="M76.18,144.59h35.63c3.01,0,5.45,2.44,5.45,5.45v7.9h-46.53v-7.9c0-3.01,2.44-5.45,5.45-5.45Z"/>
      <rect class="cls-2" x="85.28" y="126.77" width="17.44" height="17.82"/>
      <path class="cls-3" d="M111.81,144.59h-11.25c3.01,0,5.45,2.44,5.45,5.45v7.9h11.25v-7.9c0-3.01-2.44-5.45-5.45-5.45Z"/>
      <rect class="cls-4" x="39.08" y="49.07" width="109.83" height="76.74" rx="6.42" ry="6.42"/>
      <rect class="cls-4" x="85.28" y="126.77" width="17.44" height="17.82"/>
      <path class="cls-4" d="M76.18,144.59h35.63c3.01,0,5.45,2.44,5.45,5.45v7.9h-46.53v-7.9c0-3.01,2.44-5.45,5.45-5.45Z"/>
      <rect class="cls-4" x="51.06" y="87.44" width="21.75" height="21.75"/>
      <rect class="cls-4" x="83.12" y="87.44" width="21.75" height="21.75"/>
      <rect class="cls-4" x="115.19" y="87.44" width="21.75" height="21.75"/>
      <rect class="cls-4" x="51.06" y="60.95" width="42.94" height="14.76"/>
      <line class="cls-4" x1="103.95" y1="62.71" x2="136.93" y2="62.71"/>
      <line class="cls-4" x1="103.95" y1="73.95" x2="136.93" y2="73.95"/>
      <rect class="cls-5" x="129.9" y="94.97" width="38.02" height="62" rx="4.25" ry="4.25"/>
      <rect class="cls-2" x="138.35" y="111.76" width="21.12" height="13.8"/>
      <path class="cls-3" d="M129.9,149.67v4.01c0,2.35,1.9,4.25,4.25,4.25h29.51c2.35,0,4.25-1.9,4.25-4.25v-4.01h-38.02Z"/>
      <path class="cls-6" d="M153.75,103.06h-9.67c-1.37,0-2.57-.93-2.9-2.26l-1.49-5.83h18.46l-1.49,5.83c-.34,1.33-1.54,2.26-2.91,2.26Z"/>
      <path class="cls-3" d="M153.75,103.06h-9.67c-1.37,0-2.57-.93-2.9-2.26l-1.49-5.83h18.46l-1.49,5.83c-.34,1.33-1.54,2.26-2.91,2.26Z"/>
      <path class="cls-4" d="M129.9,149.67v4.01c0,2.35,1.9,4.25,4.25,4.25h29.51c2.35,0,4.25-1.9,4.25-4.25v-4.01h-38.02Z"/>
      <rect class="cls-4" x="129.9" y="94.97" width="38.02" height="62" rx="4.25" ry="4.25"/>
      <rect class="cls-4" x="138.35" y="111.76" width="21.12" height="13.8"/>
      <line class="cls-4" x1="138.35" y1="133.35" x2="159.47" y2="133.35"/>
      <line class="cls-4" x1="138.35" y1="141.51" x2="159.47" y2="141.51"/>
    </g>
  </g>
</svg>