<?xml version="1.0" encoding="UTF-8"?>
<svg id="Layer_2" xmlns="http://www.w3.org/2000/svg" viewBox="0 0 130.87 111.23">
  <defs>
    <style>
      .cls-1 {
        fill: #138af2;
        stroke: #138af2;
        stroke-miterlimit: 10;
        stroke-width: 4.25px;
      }
    </style>
  </defs>
  <g id="Icon_Set">
    <path class="cls-1" d="M14.13,95.75V3.48c0-.75-.61-1.36-1.36-1.36H3.48c-.75,0-1.36.61-1.36,1.36v104.26c0,.75.61,1.36,1.36,1.36h123.91c.75,0,1.36-.61,1.36-1.36v-9.28c0-.75-.61-1.36-1.36-1.36H15.48c-.75,0-1.36-.61-1.36-1.36Z"/>
    <path class="cls-1" d="M120.08,17.32l-32.5-.11c-.94,0-1.42,1.14-.76,1.81l11.27,11.34c.41.41.41,1.08,0,1.5l-25.49,25.43c-.41.41-1.09.41-1.5,0l-21.47-21.52c-.41-.41-1.08-.42-1.5,0l-7.73,7.68.03.03-20.74,20.69c-.41.41-.42,1.08,0,1.5l6.94,6.98c.41.42,1.09.42,1.5,0l20-19.95c.41-.41,1.09-.41,1.5,0l15.65,15.68.02-.02,5.4,5.43c.63.63,1.64.63,2.27,0l33.54-33.46c.42-.41,1.09-.41,1.5,0l11.22,11.3c.67.67,1.81.2,1.81-.74l.11-32.5c0-.59-.47-1.06-1.06-1.06Z"/>
  </g>
</svg>