<?xml version="1.0" encoding="UTF-8"?>
<svg id="Layer_2" xmlns="http://www.w3.org/2000/svg" viewBox="0 0 207 207">
  <defs>
    <style>
      .cls-1 {
        fill: none;
        stroke: #4c4372;
        stroke-linecap: round;
        stroke-linejoin: round;
        stroke-width: 6px;
      }

      .cls-2 {
        fill: #fff;
      }

      .cls-3 {
        fill: #7babf1;
      }

      .cls-4 {
        fill: #a4cff2;
      }

      .cls-5 {
        fill: #fd919e;
      }
    </style>
  </defs>
  <g id="Icon_Set">
    <g>
      <circle class="cls-2" cx="103.5" cy="103.5" r="103.5"/>
      <rect class="cls-3" x="29.6" y="42.04" width="125.13" height="87.43" rx="7.32" ry="7.32"/>
      <rect class="cls-4" x="43.25" y="85.75" width="24.77" height="24.77"/>
      <rect class="cls-4" x="79.78" y="85.75" width="24.77" height="24.77"/>
      <rect class="cls-4" x="116.31" y="85.75" width="24.77" height="24.77"/>
      <rect class="cls-2" x="43.25" y="55.58" width="48.92" height="16.81"/>
      <path class="cls-4" d="M71.87,149.76h40.59c3.43,0,6.21,2.78,6.21,6.21v8.99h-53.01v-8.99c0-3.43,2.78-6.21,6.21-6.21Z"/>
      <rect class="cls-2" x="82.23" y="129.46" width="19.86" height="20.3"/>
      <path class="cls-3" d="M112.46,149.76h-12.81c3.43,0,6.21,2.78,6.21,6.21v8.99h12.81v-8.99c0-3.43-2.78-6.21-6.21-6.21Z"/>
      <rect class="cls-1" x="29.6" y="42.04" width="125.13" height="87.43" rx="7.32" ry="7.32"/>
      <rect class="cls-1" x="82.23" y="129.46" width="19.86" height="20.3"/>
      <path class="cls-1" d="M71.87,149.76h40.59c3.43,0,6.21,2.78,6.21,6.21v8.99h-53.01v-8.99c0-3.43,2.78-6.21,6.21-6.21Z"/>
      <rect class="cls-1" x="43.25" y="85.75" width="24.77" height="24.77"/>
      <rect class="cls-1" x="79.78" y="85.75" width="24.77" height="24.77"/>
      <rect class="cls-1" x="116.31" y="85.75" width="24.77" height="24.77"/>
      <rect class="cls-1" x="43.25" y="55.58" width="48.92" height="16.81"/>
      <line class="cls-1" x1="103.5" y1="57.58" x2="141.08" y2="57.58"/>
      <line class="cls-1" x1="103.5" y1="70.39" x2="141.08" y2="70.39"/>
      <rect class="cls-4" x="133.07" y="94.33" width="43.32" height="70.63" rx="4.85" ry="4.85"/>
      <rect class="cls-2" x="142.69" y="112.36" width="24.07" height="15.72"/>
      <path class="cls-3" d="M133.07,155.55v4.57c0,2.68,2.17,4.85,4.85,4.85h33.62c2.68,0,4.85-2.17,4.85-4.85v-4.57h-43.32Z"/>
      <path class="cls-5" d="M160.23,103.55h-11.01c-1.56,0-2.92-1.06-3.31-2.57l-1.7-6.64h21.03l-1.7,6.64c-.39,1.51-1.75,2.57-3.31,2.57Z"/>
      <path class="cls-3" d="M160.23,103.55h-11.01c-1.56,0-2.92-1.06-3.31-2.57l-1.7-6.64h21.03l-1.7,6.64c-.39,1.51-1.75,2.57-3.31,2.57Z"/>
      <path class="cls-1" d="M133.07,155.55v4.57c0,2.68,2.17,4.85,4.85,4.85h33.62c2.68,0,4.85-2.17,4.85-4.85v-4.57h-43.32Z"/>
      <rect class="cls-1" x="133.07" y="94.33" width="43.32" height="70.63" rx="4.85" ry="4.85"/>
      <rect class="cls-1" x="142.69" y="112.36" width="24.07" height="15.72"/>
      <line class="cls-1" x1="142.69" y1="136.96" x2="166.76" y2="136.96"/>
      <line class="cls-1" x1="142.69" y1="146.25" x2="166.76" y2="146.25"/>
    </g>
  </g>
</svg>