<?xml version="1.0" encoding="UTF-8"?>
<svg id="Layer_2" xmlns="http://www.w3.org/2000/svg" viewBox="0 0 207 207">
  <defs>
    <style>
      .cls-1 {
        fill: #d3e6f8;
      }

      .cls-2 {
        fill: none;
        stroke: #4c4372;
        stroke-linecap: round;
        stroke-linejoin: round;
        stroke-width: 6px;
      }

      .cls-3 {
        fill: #fff;
      }

      .cls-4 {
        fill: #7babf1;
      }

      .cls-5 {
        fill: #a4cff2;
      }
    </style>
  </defs>
  <g id="Icon_Set">
    <g>
      <circle class="cls-3" cx="103.5" cy="103.5" r="103.5"/>
      <path class="cls-3" d="M88.5,84.78c1.51.95,2.38,2.66,2.38,4.45v15.15c0,.14.02.28.02.42h25.19c0-.14.02-.28.02-.42v-15.17c0-1.79.89-3.49,2.41-4.44,7.9-4.99,13.14-13.79,13.14-23.82,0-16.15-13.6-29.13-29.97-28.11-14.41.9-25.97,12.9-26.36,27.33-.28,10.36,5.04,19.5,13.15,24.61Z"/>
      <path class="cls-1" d="M122.9,60.95c0,10.03-5.25,18.83-13.14,23.82-1.52.96-2.41,2.65-2.41,4.44v15.17c0,.14-.01.28-.02.42h8.77c0-.14.02-.28.02-.42v-15.17c0-1.79.89-3.49,2.41-4.44,7.9-4.99,13.14-13.79,13.14-23.82,0-16.15-13.6-29.13-29.97-28.11-.88.05-1.74.15-2.59.29,13.48,2.1,23.79,13.76,23.79,27.82Z"/>
      <path class="cls-4" d="M116.1,104.8c0-.14.02-.28.02-.42v-11.62h-25.23v11.62c0,.14.02.28.02.42h25.19Z"/>
      <path class="cls-1" d="M65.87,126.34h75.26v57.19c0,5.86-4.76,10.62-10.62,10.62h-54.01c-5.86,0-10.62-4.76-10.62-10.62v-57.19h0Z"/>
      <path class="cls-5" d="M128.51,126.33v57.19c0,5.87-4.76,10.62-10.62,10.62h12.62c5.87,0,10.62-4.76,10.62-10.62v-57.19h-12.62Z"/>
      <rect class="cls-3" x="65.87" y="126.34" width="75.26" height="19.96"/>
      <rect class="cls-1" x="128.51" y="126.34" width="12.62" height="19.96"/>
      <line class="cls-2" x1="103.5" y1="92.76" x2="103.5" y2="70.59"/>
      <path class="cls-2" d="M90.88,64.59v.75c0,2.9,2.35,5.25,5.25,5.25h14.73c2.9,0,5.25-2.35,5.25-5.25v-.75"/>
      <path class="cls-2" d="M65.87,126.34h75.26v57.19c0,5.86-4.76,10.62-10.62,10.62h-54.01c-5.86,0-10.62-4.76-10.62-10.62v-57.19h0Z"/>
      <rect class="cls-2" x="65.87" y="126.34" width="75.26" height="19.96"/>
      <line class="cls-2" x1="103.5" y1="21.14" x2="103.5" y2="12.85"/>
      <line class="cls-2" x1="138.1" y1="35.47" x2="143.96" y2="29.61"/>
      <line class="cls-2" x1="64.19" y1="70.06" x2="55.9" y2="70.06"/>
      <line class="cls-2" x1="151.1" y1="70.06" x2="142.81" y2="70.06"/>
      <line class="cls-2" x1="68.9" y1="35.47" x2="63.04" y2="29.61"/>
      <path class="cls-5" d="M151.86,126.34H55.14c-5.95,0-10.77-4.82-10.77-10.77h0c0-5.95,4.82-10.77,10.77-10.77h96.71c5.95,0,10.77,4.82,10.77,10.77h0c0,5.95-4.82,10.77-10.77,10.77Z"/>
      <path class="cls-4" d="M151.86,104.8h-26.45c5.95,0,10.77,4.82,10.77,10.77s-4.82,10.77-10.77,10.77h26.45c5.95,0,10.77-4.82,10.77-10.77s-4.82-10.77-10.77-10.77Z"/>
      <path class="cls-2" d="M116.1,104.8c0-.14.02-.28.02-.42v-11.62h-25.23v11.62c0,.14.02.28.02.42h25.19Z"/>
      <path class="cls-2" d="M88.5,84.78c1.51.95,2.38,2.66,2.38,4.45v15.15c0,.14.02.28.02.42h25.19c0-.14.02-.28.02-.42v-15.17c0-1.79.89-3.49,2.41-4.44,7.9-4.99,13.14-13.79,13.14-23.82,0-16.15-13.6-29.13-29.97-28.11-14.41.9-25.97,12.9-26.36,27.33-.28,10.36,5.04,19.5,13.15,24.61Z"/>
      <path class="cls-2" d="M151.86,126.34H55.14c-5.95,0-10.77-4.82-10.77-10.77h0c0-5.95,4.82-10.77,10.77-10.77h96.71c5.95,0,10.77,4.82,10.77,10.77h0c0,5.95-4.82,10.77-10.77,10.77Z"/>
    </g>
  </g>
</svg>