<?xml version="1.0" encoding="UTF-8"?>
<svg id="Layer_2" xmlns="http://www.w3.org/2000/svg" viewBox="0 0 207 207">
  <defs>
    <style>
      .cls-1 {
        fill: #d3e6f8;
      }

      .cls-2, .cls-3 {
        fill: #fff;
      }

      .cls-4 {
        fill: #7babf1;
      }

      .cls-3, .cls-5 {
        stroke: #4c4372;
        stroke-linecap: round;
        stroke-linejoin: round;
        stroke-width: 4.62px;
      }

      .cls-6 {
        fill: #4c4372;
      }

      .cls-5 {
        fill: none;
      }

      .cls-7 {
        fill: #a4cff2;
      }

      .cls-8 {
        fill: #fd919e;
      }
    </style>
  </defs>
  <g id="Icon_Set">
    <g>
      <circle class="cls-2" cx="103.5" cy="103.5" r="103.5"/>
      <path class="cls-7" d="M85.57,154.37h35.86c3.03,0,5.48,2.46,5.48,5.48v7.95h-46.82v-7.95c0-3.03,2.46-5.48,5.48-5.48Z"/>
      <rect class="cls-2" x="94.73" y="136.43" width="17.55" height="17.93"/>
      <path class="cls-4" d="M121.43,154.37h-11.32c3.03,0,5.48,2.45,5.48,5.48v7.95h11.32v-7.95c0-3.03-2.45-5.48-5.48-5.48Z"/>
      <rect class="cls-7" x="48.24" y="59.21" width="110.53" height="77.23" rx="6.46" ry="6.46"/>
      <rect class="cls-5" x="48.24" y="59.21" width="110.53" height="77.23" rx="6.46" ry="6.46"/>
      <rect class="cls-5" x="94.73" y="136.43" width="17.55" height="17.93"/>
      <path class="cls-5" d="M85.57,154.37h35.86c3.03,0,5.48,2.46,5.48,5.48v7.95h-46.82v-7.95c0-3.03,2.46-5.48,5.48-5.48Z"/>
      <path class="cls-1" d="M87.27,131.79h0c0,2.56,2.08,4.64,4.64,4.64h23.18c2.56,0,4.64-2.08,4.64-4.64h0c0-2.56-2.08-4.64-4.64-4.64h-23.18c-2.56,0-4.64,2.08-4.64,4.64Z"/>
      <path class="cls-2" d="M108.43,127.15l8.11-8c2.62-2.59,3.17-6.62,1.33-9.81l-5.51-9.54-8.64-14.96-8.64,14.96-5.51,9.54c-1.84,3.19-1.3,7.22,1.33,9.81l8.11,8h9.41Z"/>
      <path class="cls-1" d="M117.87,109.35l-5.51-9.54-8.64-14.96-2.81,4.86,5.83,10.1,5.51,9.54c1.84,3.19,1.3,7.22-1.33,9.81l-8.11,8h5.61l8.11-8c2.62-2.59,3.17-6.62,1.33-9.81Z"/>
      <path class="cls-7" d="M115.09,127.15h-8.58c2.56,0,4.64,2.08,4.64,4.64h0c0,2.56-2.08,4.64-4.64,4.64h8.58c2.56,0,4.64-2.08,4.64-4.64h0c0-2.56-2.08-4.64-4.64-4.64Z"/>
      <path class="cls-5" d="M108.43,127.15l8.11-8c2.62-2.59,3.17-6.62,1.33-9.81l-5.51-9.54-8.64-14.96-8.64,14.96-5.51,9.54c-1.84,3.19-1.3,7.22,1.33,9.81l8.11,8h9.41Z"/>
      <path class="cls-5" d="M87.27,131.79h0c0,2.56,2.08,4.64,4.64,4.64h23.18c2.56,0,4.64-2.08,4.64-4.64h0c0-2.56-2.08-4.64-4.64-4.64h-23.18c-2.56,0-4.64,2.08-4.64,4.64Z"/>
      <line class="cls-5" x1="103.72" y1="107.93" x2="103.72" y2="84.84"/>
      <path class="cls-6" d="M107.42,110.35c0,2.04-1.66,3.7-3.7,3.7s-3.7-1.66-3.7-3.7,1.66-3.7,3.7-3.7,3.7,1.66,3.7,3.7Z"/>
      <path class="cls-5" d="M70.02,106.52c0-18.49,14.99-33.48,33.48-33.48s33.48,14.99,33.48,33.48"/>
      <line class="cls-5" x1="69.8" y1="73.04" x2="136.98" y2="73.04"/>
      <rect class="cls-2" x="65.41" y="106.52" width="9.22" height="9.22"/>
      <rect class="cls-2" x="132.37" y="106.52" width="9.22" height="9.22"/>
      <rect class="cls-8" x="99.12" y="68.42" width="9.22" height="9.22"/>
      <rect class="cls-5" x="65.41" y="106.52" width="9.22" height="9.22"/>
      <rect class="cls-5" x="132.37" y="106.52" width="9.22" height="9.22"/>
      <rect class="cls-3" x="99.12" y="68.42" width="9.22" height="9.22"/>
      <circle class="cls-1" cx="64.93" cy="73.04" r="4.63"/>
      <circle class="cls-1" cx="141.59" cy="73.04" r="4.63"/>
      <circle class="cls-5" cx="64.93" cy="73.04" r="4.63"/>
      <circle class="cls-5" cx="141.59" cy="73.04" r="4.63"/>
    </g>
  </g>
</svg>