<svg width="631" height="115" viewBox="0 0 631 115" fill="none" xmlns="http://www.w3.org/2000/svg">
<g clip-path="url(#clip0_118_4)">
<path d="M6.28125 24.125H21.2812L41.4375 73.4375H42.2812L62.4375 24.125H77.4375V92H65.7188V45.3125H65.0625L46.2188 91.8125H37.5L18.6562 45.125H18.0938V92H6.28125V24.125ZM98.625 92H85.5938L109.5 24.125H124.5L148.5 92H135.469L129.844 75.2188H104.25L98.625 92ZM107.531 65.375H126.562L117.281 38H116.719L107.531 65.375ZM192.469 42.7812C191.906 36.9688 186.938 33.5938 179.625 33.5938C171.938 33.5938 167.25 37.3438 167.25 42.4062C167.25 48.125 173.25 50.4688 178.875 51.7812L185.25 53.4688C195.375 55.8125 205.125 61.1562 205.125 72.9688C205.125 84.875 195.75 93.0312 179.438 93.0312C163.594 93.0312 153.656 85.4375 153.094 72.0312H165.094C165.656 79.1562 171.656 82.625 179.344 82.625C187.406 82.625 192.938 78.6875 192.938 72.875C192.938 67.5312 187.969 65.2812 180.656 63.4062L172.969 61.4375C161.812 58.5312 154.875 52.9062 154.875 43.1562C154.875 31.1562 165.562 23.1875 179.812 23.1875C194.25 23.1875 204 31.3438 204.188 42.7812H192.469ZM212.25 34.3438V24.125H266.344V34.3438H245.438V92H233.25V34.3438H212.25ZM275.906 92V24.125H320.062V34.3438H288.094V52.9062H317.719V63.125H288.094V81.6875H320.25V92H275.906ZM331.781 92V24.125H357.281C372.844 24.125 381.188 32.8438 381.188 45.7812C381.188 55.0156 376.969 61.8594 369 65.0938L383.625 92H370.031L356.719 67.1562H343.969V92H331.781ZM343.969 56.9375H355.406C364.594 56.9375 368.719 53 368.719 45.7812C368.719 38.5625 364.594 34.3438 355.406 34.3438H343.969V56.9375ZM391.688 92V24.125H417.188C432.75 24.125 441.094 33.5938 441.094 46.625C441.094 59.6562 432.656 69.0312 417 69.0312H403.875V92H391.688ZM403.875 59H415.312C424.5 59 428.625 53.8438 428.625 46.625C428.625 39.3125 424.5 34.3438 415.312 34.3438H403.875V59ZM463.125 24.125V92H450.938V24.125H463.125ZM475.781 92V24.125H519.938V34.3438H487.969V52.9062H517.594V63.125H487.969V81.6875H520.125V92H475.781ZM577.406 47C576 38.8438 569.438 34.1562 561.188 34.1562C550.031 34.1562 542.25 42.6875 542.25 58.0625C542.25 73.625 550.125 81.9688 561.188 81.9688C569.25 81.9688 575.812 77.4688 577.406 69.5H589.688C587.812 82.5312 577.125 92.9375 561 92.9375C543.094 92.9375 529.969 79.9062 529.969 58.0625C529.969 36.125 543.281 23.1875 561 23.1875C576 23.1875 587.625 31.9062 589.688 47H577.406ZM600.188 92V24.125H644.344V34.3438H612.375V52.9062H642V63.125H612.375V81.6875H644.531V92H600.188Z" fill="white"/>
</g>
<defs>
<clipPath id="clip0_118_4">
<rect width="631" height="115" fill="white"/>
</clipPath>
</defs>
</svg>
