<svg width="631" height="115" viewBox="0 0 631 115" fill="none" xmlns="http://www.w3.org/2000/svg">
<g clip-path="url(#clip0_118_4)">
<path d="M19.5 25.125L40.9688 77.7188H41.8125L63.2812 25.125H75.8438V93H66V43.9688H65.3438L45.4688 92.9062H37.3125L17.3438 43.875H16.7812V93H6.9375V25.125H19.5ZM84.5625 93L108.938 25.125H120.844L145.312 93H134.344L128.156 75.0938H101.719L95.5312 93H84.5625ZM125.156 66.4688L115.125 37.5H114.656L104.672 66.4688H125.156ZM190.312 43.0312C190 39.9062 188.578 37.4688 186.047 35.7188C183.516 33.9688 180.281 33.0938 176.344 33.0938C173.625 33.0938 171.234 33.5312 169.172 34.4062C167.141 35.25 165.562 36.4375 164.438 37.9688C163.312 39.5 162.75 41.2188 162.75 43.125C162.75 46 163.938 48.2188 166.312 49.7812C168.688 51.3438 171.625 52.5312 175.125 53.3438L181.688 55.125C194.719 58.2812 201.25 64.6562 201.281 74.25C201.25 78.0938 200.234 81.5156 198.234 84.5156C196.266 87.5156 193.375 89.875 189.562 91.5938C185.781 93.2812 181.281 94.125 176.062 94.125C171.031 94.125 166.641 93.3281 162.891 91.7344C159.172 90.1094 156.25 87.7969 154.125 84.7969C152.031 81.7969 150.875 78.25 150.656 74.1562H160.969C161.25 77.7188 162.781 80.4375 165.562 82.3125C168.375 84.1562 171.875 85.0938 176.062 85.125C178.938 85.125 181.5 84.6719 183.75 83.7656C186.031 82.8281 187.812 81.5312 189.094 79.875C190.406 78.1875 191.062 76.25 191.062 74.0625C191.062 72.1875 190.516 70.6094 189.422 69.3281C188.328 68.0469 186.859 67 185.016 66.1875C183.203 65.3438 180.938 64.5625 178.219 63.8438L170.156 61.6875C164.469 60.125 160.094 57.875 157.031 54.9375C154 52 152.469 48.25 152.438 43.6875C152.438 39.8438 153.484 36.4531 155.578 33.5156C157.703 30.5469 160.594 28.25 164.25 26.625C167.938 25 172.062 24.1875 176.625 24.1875C181.156 24.1875 185.203 25 188.766 26.625C192.328 28.2188 195.125 30.4531 197.156 33.3281C199.188 36.1719 200.25 39.4062 200.344 43.0312H190.312ZM208.969 25.125H261.562V34.0312H240.469V93H230.156V34.0312H208.969V25.125ZM272.062 25.125H314.625V34.0312H282.375V54.5625H312.375V63.375H282.375V84.0938H315V93H272.062V25.125ZM327.281 25.125H351.469C356.594 25.125 360.922 26.0156 364.453 27.7969C367.984 29.5781 370.625 32.0625 372.375 35.25C374.125 38.4375 375 42.1562 375 46.4062C375 51.0312 373.953 55 371.859 58.3125C369.766 61.5938 366.688 64.0156 362.625 65.5781L377.625 93H365.906L352.125 67.4062H351.469H337.594V93H327.281V25.125ZM350.438 58.5C355.312 58.4688 358.891 57.4375 361.172 55.4062C363.453 53.3438 364.594 50.3438 364.594 46.4062C364.594 42.4375 363.438 39.375 361.125 37.2188C358.844 35.0625 355.281 33.9688 350.438 33.9375H337.594V58.5H350.438ZM386.438 25.125H410.625C415.75 25.125 420.062 26.0781 423.562 27.9844C427.094 29.8594 429.734 32.4531 431.484 35.7656C433.266 39.0781 434.156 42.875 434.156 47.1562C434.156 51.4062 433.266 55.2031 431.484 58.5469C429.734 61.8594 427.094 64.4688 423.562 66.375C420.031 68.25 415.719 69.1875 410.625 69.1875H396.75V93H386.438V25.125ZM409.594 60.375C414.375 60.4062 417.922 59.2188 420.234 56.8125C422.578 54.4062 423.75 51.1875 423.75 47.1562C423.75 43.0938 422.578 39.8906 420.234 37.5469C417.922 35.1719 414.375 33.9688 409.594 33.9375H396.75V60.375H409.594ZM455.344 93H445.031V25.125H455.344V93ZM469.125 25.125H511.688V34.0312H479.438V54.5625H509.438V63.375H479.438V84.0938H512.062V93H469.125V25.125ZM570.281 47.25C569.75 44.4062 568.641 41.9531 566.953 39.8906C565.297 37.8281 563.234 36.2656 560.766 35.2031C558.328 34.1406 555.656 33.625 552.75 33.6562C548.812 33.625 545.297 34.6094 542.203 36.6094C539.141 38.5781 536.719 41.4844 534.938 45.3281C533.188 49.1406 532.312 53.7188 532.312 59.0625C532.312 64.4375 533.188 69.0469 534.938 72.8906C536.719 76.7031 539.141 79.5938 542.203 81.5625C545.297 83.5312 548.812 84.5 552.75 84.4688C555.625 84.5 558.281 84 560.719 82.9688C563.156 81.9062 565.203 80.3594 566.859 78.3281C568.547 76.2969 569.688 73.875 570.281 71.0625L580.688 71.1562C579.969 75.5938 578.328 79.5469 575.766 83.0156C573.234 86.4531 569.969 89.1406 565.969 91.0781C562 92.9844 557.562 93.9375 552.656 93.9375C546.75 93.9375 541.484 92.5312 536.859 89.7188C532.234 86.9062 528.609 82.875 525.984 77.625C523.391 72.3438 522.094 66.1562 522.094 59.0625C522.094 51.9688 523.406 45.7969 526.031 40.5469C528.656 35.2656 532.281 31.2188 536.906 28.4062C541.531 25.5938 546.781 24.1875 552.656 24.1875C557.438 24.1875 561.812 25.1094 565.781 26.9531C569.75 28.7656 573.031 31.4062 575.625 34.875C578.25 38.3438 579.938 42.4688 580.688 47.25H570.281ZM591.844 25.125H634.406V34.0312H602.156V54.5625H632.156V63.375H602.156V84.0938H634.781V93H591.844V25.125Z" fill="white"/>
</g>
<defs>
<clipPath id="clip0_118_4">
<rect width="631" height="115" fill="white"/>
</clipPath>
</defs>
</svg>
