<svg width="627" height="115" viewBox="0 0 627 115" fill="none" xmlns="http://www.w3.org/2000/svg">
<path d="M14.2812 24.125H29.2812L49.4375 73.4375H50.2812L70.4375 24.125H85.4375V92H73.7188V45.3125H73.0625L54.2188 91.8125H45.5L26.6562 45.125H26.0938V92H14.2812V24.125ZM98 92V24.125H142.156V34.3438H110.188V52.9062H139.812V63.125H110.188V81.6875H142.344V92H98ZM209.656 24.125V92H198.781L166.625 45.5938H166.062V92H153.875V24.125H164.938L196.906 70.5312H197.562V24.125H209.656ZM219.219 34.3438V24.125H273.312V34.3438H252.406V92H240.219V34.3438H219.219ZM340.438 58.0625C340.438 80 327.125 92.9375 309.312 92.9375C291.5 92.9375 278.188 79.9062 278.188 58.0625C278.188 36.125 291.5 23.1875 309.312 23.1875C327.125 23.1875 340.438 36.125 340.438 58.0625ZM328.156 58.0625C328.156 42.5938 320.375 34.1562 309.312 34.1562C298.25 34.1562 290.469 42.5938 290.469 58.0625C290.469 73.5312 298.25 81.9688 309.312 81.9688C320.375 81.9688 328.156 73.5312 328.156 58.0625ZM351.312 92V24.125H376.812C392.375 24.125 400.719 32.8438 400.719 45.7812C400.719 55.0156 396.5 61.8594 388.531 65.0938L403.156 92H389.562L376.25 67.1562H363.5V92H351.312ZM363.5 56.9375H374.938C384.125 56.9375 388.25 53 388.25 45.7812C388.25 38.5625 384.125 34.3438 374.938 34.3438H363.5V56.9375ZM448.156 42.7812C447.594 36.9688 442.625 33.5938 435.312 33.5938C427.625 33.5938 422.938 37.3438 422.938 42.4062C422.938 48.125 428.938 50.4688 434.562 51.7812L440.938 53.4688C451.062 55.8125 460.812 61.1562 460.812 72.9688C460.812 84.875 451.438 93.0312 435.125 93.0312C419.281 93.0312 409.344 85.4375 408.781 72.0312H420.781C421.344 79.1562 427.344 82.625 435.031 82.625C443.094 82.625 448.625 78.6875 448.625 72.875C448.625 67.5312 443.656 65.2812 436.344 63.4062L428.656 61.4375C417.5 58.5312 410.562 52.9062 410.562 43.1562C410.562 31.1562 421.25 23.1875 435.5 23.1875C449.938 23.1875 459.688 31.3438 459.875 42.7812H448.156ZM470.938 92V24.125H483.125V52.9062H514.719V24.125H527V92H514.719V63.125H483.125V92H470.938ZM551.75 24.125V92H539.562V24.125H551.75ZM564.406 92V24.125H589.906C605.469 24.125 613.812 33.5938 613.812 46.625C613.812 59.6562 605.375 69.0312 589.719 69.0312H576.594V92H564.406ZM576.594 59H588.031C597.219 59 601.344 53.8438 601.344 46.625C601.344 39.3125 597.219 34.3438 588.031 34.3438H576.594V59Z" fill="#C8C8C8"/>
</svg>
