<svg width="400" height="115" viewBox="0 0 400 115" fill="none" xmlns="http://www.w3.org/2000/svg">
<g clip-path="url(#clip0_118_2)">
<path d="M9.28125 92V24.125H34.7812C50.3438 24.125 58.6875 33.5938 58.6875 46.625C58.6875 59.6562 50.25 69.0312 34.5938 69.0312H21.4688V92H9.28125ZM21.4688 59H32.9062C42.0938 59 46.2188 53.8438 46.2188 46.625C46.2188 39.3125 42.0938 34.3438 32.9062 34.3438H21.4688V59ZM69.5625 92H56.5312L80.4375 24.125H95.4375L119.438 92H106.406L100.781 75.2188H75.1875L69.5625 92ZM78.4688 65.375H97.5L88.2188 38H87.6562L78.4688 65.375ZM163.406 42.7812C162.844 36.9688 157.875 33.5938 150.562 33.5938C142.875 33.5938 138.188 37.3438 138.188 42.4062C138.188 48.125 144.188 50.4688 149.812 51.7812L156.188 53.4688C166.312 55.8125 176.062 61.1562 176.062 72.9688C176.062 84.875 166.688 93.0312 150.375 93.0312C134.531 93.0312 124.594 85.4375 124.031 72.0312H136.031C136.594 79.1562 142.594 82.625 150.281 82.625C158.344 82.625 163.875 78.6875 163.875 72.875C163.875 67.5312 158.906 65.2812 151.594 63.4062L143.906 61.4375C132.75 58.5312 125.812 52.9062 125.812 43.1562C125.812 31.1562 136.5 23.1875 150.75 23.1875C165.188 23.1875 174.938 31.3438 175.125 42.7812H163.406ZM223.125 42.7812C222.562 36.9688 217.594 33.5938 210.281 33.5938C202.594 33.5938 197.906 37.3438 197.906 42.4062C197.906 48.125 203.906 50.4688 209.531 51.7812L215.906 53.4688C226.031 55.8125 235.781 61.1562 235.781 72.9688C235.781 84.875 226.406 93.0312 210.094 93.0312C194.25 93.0312 184.312 85.4375 183.75 72.0312H195.75C196.312 79.1562 202.312 82.625 210 82.625C218.062 82.625 223.594 78.6875 223.594 72.875C223.594 67.5312 218.625 65.2812 211.312 63.4062L203.625 61.4375C192.469 58.5312 185.531 52.9062 185.531 43.1562C185.531 31.1562 196.219 23.1875 210.469 23.1875C224.906 23.1875 234.656 31.3438 234.844 42.7812H223.125ZM258.094 24.125V92H245.906V24.125H258.094ZM331.312 58.0625C331.312 80 318 92.9375 300.188 92.9375C282.375 92.9375 269.062 79.9062 269.062 58.0625C269.062 36.125 282.375 23.1875 300.188 23.1875C318 23.1875 331.312 36.125 331.312 58.0625ZM319.031 58.0625C319.031 42.5938 311.25 34.1562 300.188 34.1562C289.125 34.1562 281.344 42.5938 281.344 58.0625C281.344 73.5312 289.125 81.9688 300.188 81.9688C311.25 81.9688 319.031 73.5312 319.031 58.0625ZM397.969 24.125V92H387.094L354.938 45.5938H354.375V92H342.188V24.125H353.25L385.219 70.5312H385.875V24.125H397.969Z" fill="#C8C8C8"/>
</g>
<defs>
<clipPath id="clip0_118_2">
<rect width="400" height="115" fill="white"/>
</clipPath>
</defs>
</svg>
