<?xml version="1.0" encoding="UTF-8"?>
<svg id="Layer_2" xmlns="http://www.w3.org/2000/svg" viewBox="0 0 361.94 178.24">
  <defs>
    <style>
      .cls-1 {
        fill: #e2e2e2;
      }
    </style>
  </defs>
  <g id="Layer_1-2" data-name="Layer_1">
    <g>
      <path class="cls-1" d="M68.38,109.34c0-5.27,5.27-10.55,9.14-10.55,6.5-8.79,11.78-19.69,11.78-27.95,0-.53.18-1.05.7-1.05,2.46,0,5.98,3.16,5.98,6.68,0,8.61-8.61,21.45-19.34,30.94-.35.53-.53,1.23-.53,2.11,0,3.16,3.16,5.8,9.14,5.8,9.84,0,24.43-6.5,38.5-19.51,2.46-2.11,2.29,0,1.05,1.23-13.71,12.66-30.41,20.74-41.66,20.74-7.21,0-11.78-1.58-13.71-4.75-5.8,3.87-11.6,6.33-16.7,6.33-6.5,0-10.55-2.99-10.55-8.96,0-8.96,11.43-17.4,11.43-19.86,0-.35-.18-.53-.53-.53-1.93,0-6.5,4.75-14.94,14.41-11.43,13.18-20.92,23.73-29.36,23.73-5.45,0-8.79-3.34-8.79-8.61,0-14.77,31.99-35.86,31.99-43.59,0-.88-.35-1.58-1.41-1.58-3.69,0-12.48,8.09-28.48,22.68-2.46,2.11-2.29,0-1.05-1.23,17.05-15.64,25.84-23.73,30.76-23.73,3.34,0,5.45,2.11,5.45,5.62,0,10.37-27.25,31.11-27.25,42.01,0,2.46,1.23,3.69,3.16,3.69,4.39,0,13.54-9.67,23.03-20.57,11.25-13.01,15.47-16.88,20.39-16.88,3.16,0,5.27,2.11,5.27,5.1,0,4.22-8.96,11.6-8.96,18.98,0,2.99,1.58,4.75,5.1,4.75,2.81,0,6.5-2.11,10.37-5.45Z"/>
      <path class="cls-1" d="M154.69,65.92c19.69-19.51,24.43-24.43,36.04-33.93,3.16-2.46,5.8-3.69,7.38-3.69,2.29,0,3.69,1.58,3.69,3.69,0,5.45-23.91,24.79-42.19,40.08-16.88,20.39-29.18,39.02-29.18,40.78,0,.35.18.53.53.53.18,0,.35-.18.7-.53,9.49-9.67,44.3-42.01,56.78-42.01,4.22,0,6.68,2.46,6.68,5.45,0,7.91-19.86,21.09-19.86,31.11,0,3.87,2.46,5.8,7.21,5.8,10.55,0,23.91-8.44,33.75-17.4,2.46-2.11,2.29,0,1.05,1.23-10.72,9.84-26.54,20.92-39.73,20.92-7.73,0-12.13-4.04-12.13-9.84,0-12.3,21.8-26.89,21.8-32.7,0-.7-.35-1.05-1.05-1.05-9.32,0-42.72,31.29-55.37,43.59-4.75,4.75-6.68,8.44-8.96,8.44-1.76,0-4.04-2.11-4.04-4.22,0-5.8,14.24-25.84,31.11-47.29.35-.53.18-.88-.53-.18-7.73,7.38-17.58,16.88-23.55,22.32-2.46,2.11-2.29,0-1.05-1.23,10.2-9.32,23.03-21.97,30.94-29.88Z"/>
      <path class="cls-1" d="M197.41,141.86c.7,0,1.41.35,1.41,1.23,0,2.29-8.44,7.73-8.44,19.69,0,7.91,4.39,11.6,12.13,11.6,10.2,0,23.03-13.01,35.16-30.76,9.32-13.54,16.88-30.23,23.2-43.77-11.95,12.13-24.96,24.08-31.99,24.08-5.45,0-8.96-3.34-8.96-9.14,0-17.05,34.28-37.79,34.28-44.82,0-1.05-.53-1.58-1.58-1.58-3.69,0-12.3,7.73-35.33,28.65-2.46,2.11-2.29,0-1.05-1.23,22.15-20.39,32.17-29.71,37.79-29.71,2.99,0,4.92,2.11,4.92,4.92,0,10.55-31.46,31.11-31.46,45.7,0,2.81,1.41,3.87,3.16,3.87,5.27,0,18.11-12.13,26.72-20.57,8.09-7.91,12.13-15.47,14.59-15.47,1.76,0,3.16,1.41,3.16,3.34,0,4.04-17.4,39.55-31.11,59.94-11.78,17.23-25.49,30.41-40.43,30.41-11.25,0-18.98-6.86-18.98-17.23,0-11.78,7.91-19.16,12.83-19.16Z"/>
      <path class="cls-1" d="M351.92,16.88c0-7.73-4.22-13.89-13.54-13.89-24.26,0-47.46,29-47.46,46.93,0,7.21,1.76,8.44,1.76,9.49,0,.7-.7,1.41-1.58,1.41-1.76,0-9.14-4.75-9.14-15.29,0-20.92,31.11-45.53,56.07-45.53,13.36,0,23.91,7.56,23.91,21.97,0,34.1-60.64,56.43-60.64,69.08,0,1.23.35,1.41.35,2.46,0,.88-1.41,1.76-2.64,1.76s-2.64-2.46-2.64-5.62c0-19.51,55.55-41.48,55.55-72.77ZM301.83,107.75c0,3.52-3.87,10.37-7.73,10.37-2.64,0-4.92-2.29-4.92-5.62,0-4.04,4.92-9.49,7.73-9.49,2.99,0,4.92,1.93,4.92,4.75Z"/>
    </g>
  </g>
</svg>